<?xml version="1.0" standalone="no"?>
<!DOCTYPE svg PUBLIC "-//W3C//DTD SVG 20010904//EN"
 "http://www.w3.org/TR/2001/REC-SVG-20010904/DTD/svg10.dtd">
<svg version="1.0" xmlns="http://www.w3.org/2000/svg"
 width="500.000000pt" height="500.000000pt" viewBox="0 0 500.000000 500.000000"
 preserveAspectRatio="xMidYMid meet">

<g transform="translate(0.000000,500.000000) scale(0.100000,-0.100000)"
fill="#000000" stroke="none">
<path d="M1815 3867 c-124 -65 -189 -107 -287 -186 -213 -172 -386 -424 -477
-696 -61 -183 -76 -278 -75 -495 1 -200 16 -302 70 -466 38 -118 134 -307 205
-408 61 -86 64 -88 67 -59 2 24 -10 49 -53 113 -301 442 -336 1038 -89 1509
154 292 378 512 672 658 66 33 92 52 92 65 0 27 -15 23 -125 -35z"/>
<path d="M3060 3902 c0 -14 25 -31 93 -65 429 -214 728 -610 813 -1077 24
-129 24 -391 1 -518 -37 -199 -119 -402 -231 -570 -37 -55 -56 -93 -56 -113
l0 -31 24 29 c134 160 259 439 302 673 27 146 25 411 -4 557 -95 474 -393 868
-817 1080 -109 55 -125 59 -125 35z"/>
<path d="M2306 3810 c-519 -82 -946 -463 -1080 -963 -39 -143 -49 -243 -43
-401 14 -348 135 -624 381 -872 180 -182 366 -289 616 -357 111 -30 122 -31
320 -31 198 0 209 1 320 31 250 68 436 175 616 357 161 163 254 315 323 529
49 153 64 267 58 442 -3 83 -13 181 -21 219 -57 255 -168 465 -336 640 -191
198 -378 309 -640 378 -102 27 -134 31 -285 33 -93 2 -197 0 -229 -5z m-92
-571 c14 -17 26 -41 26 -53 0 -35 -125 -528 -180 -712 -28 -90 -50 -167 -50
-171 0 -12 129 5 161 21 37 18 49 20 49 6 0 -20 -68 -43 -143 -49 l-79 -6 -33
-85 c-50 -130 -101 -226 -133 -249 -97 -69 -223 -30 -252 79 -33 123 94 256
262 276 40 4 58 11 61 23 13 46 98 338 103 354 3 10 -27 -15 -68 -56 -105
-106 -178 -128 -263 -76 -79 47 -90 147 -33 296 45 118 89 192 158 263 118
122 235 143 296 52 l22 -32 7 38 c21 121 41 139 89 81z m1240 0 c14 -17 26
-41 26 -53 0 -35 -125 -528 -180 -712 -28 -90 -50 -167 -50 -171 0 -12 129 5
161 21 37 18 49 20 49 6 0 -20 -68 -43 -143 -49 l-79 -6 -33 -85 c-50 -130
-101 -226 -133 -249 -97 -69 -223 -30 -252 79 -33 123 94 256 262 276 40 4 58
11 61 23 13 46 98 338 103 354 3 10 -27 -15 -68 -56 -105 -106 -178 -128 -263
-76 -79 47 -90 147 -33 296 45 118 89 192 158 263 118 122 235 143 296 52 l22
-32 7 38 c21 121 41 139 89 81z m-824 -238 c63 -44 71 -143 22 -243 -17 -35
-63 -106 -101 -158 -39 -52 -71 -100 -71 -105 0 -6 25 -35 56 -65 30 -30 73
-79 96 -107 22 -29 44 -53 49 -53 5 0 30 36 55 80 48 83 59 96 67 83 3 -5 -20
-50 -50 -101 l-55 -94 21 -48 c28 -66 36 -145 18 -194 -7 -22 -20 -42 -27 -44
-10 -4 -11 0 -5 14 17 41 17 142 0 193 -9 28 -20 51 -23 50 -4 0 -27 -27 -52
-60 -63 -84 -146 -145 -216 -159 -144 -30 -235 44 -221 178 7 68 63 186 145
306 44 64 59 94 53 105 -27 50 -42 123 -42 195 0 65 5 89 27 133 50 104 174
149 254 94z"/>
<path d="M1967 3130 c-80 -51 -201 -242 -242 -385 -47 -161 30 -246 146 -160
51 36 129 132 153 186 30 65 78 281 71 319 -14 75 -54 87 -128 40z"/>
<path d="M1758 2251 c-96 -38 -158 -113 -158 -191 0 -65 28 -100 80 -100 70 0
116 58 174 218 14 40 26 77 26 83 0 15 -72 9 -122 -10z"/>
<path d="M3207 3130 c-80 -51 -201 -242 -242 -385 -47 -161 30 -246 146 -160
51 36 129 132 153 186 30 65 78 281 71 319 -14 75 -54 87 -128 40z"/>
<path d="M2998 2251 c-96 -38 -158 -113 -158 -191 0 -65 28 -100 80 -100 70 0
116 58 174 218 14 40 26 77 26 83 0 15 -72 9 -122 -10z"/>
<path d="M2485 2986 c-71 -32 -115 -114 -115 -215 0 -56 23 -157 40 -175 9 -9
129 147 157 204 25 51 29 144 9 175 -18 28 -45 31 -91 11z"/>
<path d="M2413 2403 c-128 -211 -151 -321 -77 -370 63 -41 150 -9 240 91 88
95 93 107 62 153 -28 42 -166 193 -177 193 -3 0 -25 -30 -48 -67z"/>
<path d="M3140 1235 c-14 -8 -50 -24 -80 -36 -30 -12 -58 -25 -63 -29 -10 -8
37 -123 53 -128 9 -3 10 4 5 27 -6 27 -3 32 19 42 26 12 35 29 15 29 -6 0 -19
-5 -29 -10 -15 -8 -21 -6 -29 9 -9 16 -6 21 19 31 17 7 30 15 30 19 0 3 11 7
25 7 21 2 30 -7 51 -47 13 -27 29 -49 34 -49 15 0 12 15 -12 66 -22 43 -22 46
-5 58 36 27 10 35 -33 11z"/>
<path d="M1805 1205 c-28 -27 -30 -42 -14 -78 11 -25 47 -47 74 -47 16 0 55
35 55 49 0 11 -61 33 -69 25 -3 -3 2 -11 12 -18 23 -18 21 -26 -6 -26 -47 0
-64 52 -27 85 17 15 24 16 45 7 14 -6 25 -18 25 -26 0 -7 7 -16 15 -20 24 -9
18 28 -8 52 -31 29 -72 28 -102 -3z"/>
<path d="M1946 1128 c-10 -29 -21 -59 -23 -65 -3 -7 1 -13 8 -13 8 0 24 26 37
58 26 67 26 72 9 72 -7 0 -21 -24 -31 -52z"/>
<path d="M2008 1113 c3 -32 9 -69 14 -83 10 -25 10 -24 63 35 36 40 50 62 42
67 -7 5 -25 -8 -47 -34 -34 -41 -35 -41 -41 -17 -4 13 -7 39 -8 57 -1 19 -6
32 -14 32 -10 0 -13 -14 -9 -57z"/>
<path d="M2940 1153 c0 -22 43 -133 51 -133 13 0 10 28 -10 84 -15 44 -41 74
-41 49z"/>
<path d="M2139 1072 c-6 -31 -13 -62 -16 -69 -4 -11 52 -33 85 -33 23 0 12 20
-15 26 -39 9 -43 13 -36 30 4 12 14 14 35 10 21 -4 28 -2 26 7 -3 6 -14 13
-26 15 -14 2 -22 11 -22 22 0 16 5 18 35 13 23 -4 35 -2 35 6 0 6 -3 11 -7 11
-5 0 -25 4 -45 9 l-37 9 -12 -56z"/>
<path d="M2811 1104 c-12 -15 -21 -34 -21 -44 0 -10 9 -29 21 -44 39 -50 129
-23 129 39 0 26 -9 29 -47 19 -28 -8 -30 -24 -3 -24 24 0 26 -13 5 -30 -23
-19 -64 -4 -71 27 -11 42 7 58 61 55 41 -2 46 0 35 13 -7 9 -29 15 -50 15 -30
0 -43 -6 -59 -26z"/>
<path d="M2317 1025 c-23 -43 -30 -65 -21 -65 7 0 16 5 19 10 11 18 60 11 78
-11 10 -11 21 -19 23 -16 10 10 -38 147 -51 147 -8 0 -29 -29 -48 -65z m45
-23 c-21 -6 -25 4 -11 30 l13 23 6 -25 c4 -17 2 -26 -8 -28z"/>
<path d="M2600 1066 c0 -13 3 -44 6 -70 6 -44 8 -46 39 -46 47 0 85 34 85 74
0 45 -26 66 -83 66 -43 0 -47 -2 -47 -24z m94 -12 c29 -29 10 -72 -34 -76 -23
-3 -25 0 -28 45 -3 44 -2 47 22 47 13 0 32 -7 40 -16z"/>
<path d="M2450 1010 c0 -80 17 -96 22 -19 l3 50 38 -50 c20 -28 42 -51 47 -51
6 0 10 31 10 70 0 78 -17 96 -22 23 l-3 -47 -35 47 c-49 66 -60 62 -60 -23z"/>
</g>
</svg>
